# Blender 4.4.0
# www.blender.org
o Cube.002
v -0.034400 0.001985 -0.034400
v 0.034400 0.001985 -0.034400
v -0.034400 0.001985 0.034400
v 0.034400 0.001985 0.034400
v -0.062508 -0.001225 -0.062508
v -0.062508 -0.001225 -0.046938
v -0.046938 -0.001225 -0.046938
v -0.046938 -0.001225 -0.062508
v 0.046937 -0.001225 -0.046938
v 0.062508 -0.001225 -0.046938
v 0.062508 -0.001225 -0.062508
v 0.046937 -0.001225 -0.062508
v -0.062508 -0.001225 0.062508
v -0.046938 -0.001225 0.062508
v -0.046938 -0.001225 0.046937
v -0.062508 -0.001225 0.046937
v 0.046937 -0.001225 0.046937
v 0.046937 -0.001225 0.062508
v 0.062508 -0.001225 0.062508
v 0.062508 -0.001225 0.046937
v -0.046938 0.001985 -0.046938
v 0.046937 0.001985 -0.046938
v -0.046938 0.001985 0.046937
v 0.046937 0.001985 0.046937
v -0.043994 0.001985 -0.043994
v 0.043995 0.001985 -0.043994
v -0.043994 0.001985 0.043995
v 0.043995 0.001985 0.043995
v -0.034400 -0.001056 -0.034400
v 0.034400 -0.001056 -0.034400
v -0.034400 -0.001056 0.034400
v 0.034400 -0.001056 0.034400
vn 1.0000 -0.0000 -0.0000
vn -1.0000 -0.0000 -0.0000
vn -0.0000 -0.0000 -1.0000
vn -0.0000 -0.0000 1.0000
vn -0.0000 1.0000 -0.0000
vt 0.744197 0.630803
vt 0.744197 0.650447
vt 0.747777 0.654027
vt 0.747777 0.627223
vt 0.720973 0.627223
vt 0.720973 0.654027
vt 0.752223 0.627223
vt 0.747777 0.622777
vt 0.752223 0.622777
vt 0.716527 0.627223
vt 0.716527 0.622777
vt 0.720973 0.622777
vt 0.747777 0.658473
vt 0.752223 0.654027
vt 0.752223 0.658473
vt 0.720973 0.658473
vt 0.716527 0.658473
vt 0.716527 0.654027
vt 0.746937 0.628063
vt 0.721813 0.628063
vt 0.746937 0.653187
vt 0.721813 0.653187
vt 0.724553 0.630803
vt 0.724553 0.650447
s 1
f 1/1/1 3/2/1 31/2/1 29/1/1
f 23/3/2 21/4/2 7/4/2 15/3/2
f 21/4/3 22/5/3 9/5/3 7/4/3
f 24/6/4 23/3/4 15/3/4 17/6/4
f 22/5/1 24/6/1 17/6/1 9/5/1
f 6/7/5 7/4/5 8/8/5 5/9/5
f 10/10/5 11/11/5 12/12/5 9/5/5
f 14/13/5 15/3/5 16/14/5 13/15/5
f 18/16/5 19/17/5 20/18/5 17/6/5
f 7/4/5 9/5/5 12/12/5 8/8/5
f 6/7/5 16/14/5 15/3/5 7/4/5
f 9/5/5 17/6/5 20/18/5 10/10/5
f 14/13/5 18/16/5 17/6/5 15/3/5
f 25/19/5 26/20/5 22/5/5 21/4/5
f 27/21/5 25/19/5 21/4/5 23/3/5
f 26/20/5 28/22/5 24/6/5 22/5/5
f 28/22/5 27/21/5 23/3/5 24/6/5
f 1/1/5 2/23/5 26/20/5 25/19/5
f 3/2/5 1/1/5 25/19/5 27/21/5
f 2/23/5 4/24/5 28/22/5 26/20/5
f 4/24/5 3/2/5 27/21/5 28/22/5
f 30/23/5 29/1/5 31/2/5 32/24/5
f 4/24/2 2/23/2 30/23/2 32/24/2
f 3/2/3 4/24/3 32/24/3 31/2/3
f 2/23/4 1/1/4 29/1/4 30/23/4
o Plane
v -0.500000 0.000000 0.500000
v 0.500000 0.000000 0.500000
v -0.500000 0.000000 -0.500000
v 0.500000 0.000000 -0.500000
vn -0.0000 1.0000 -0.0000
vt 0.000000 0.000000
vt 1.000000 0.000000
vt 1.000000 1.000000
vt 0.000000 1.000000
s 0
f 33/25/6 34/26/6 36/27/6 35/28/6
